<svg id="Layer_3" height="512" viewBox="0 0 64 64" width="512" xmlns="http://www.w3.org/2000/svg" data-name="Layer 3"><path d="m49.35 35.278-4.38-17.52h-.009c-.414-2.953-8.261-3.758-12.961-3.758s-12.547.8-12.961 3.76h-.009l-4.38 17.52c-6.381 1.037-13.65 3.029-13.65 6.72 0 5.252 15.6 8 31 8s31-2.748 31-8c0-3.691-7.269-5.683-13.65-6.722zm-5.41-13.394a31.031 31.031 0 0 1 -11.94 2.116 31.036 31.036 0 0 1 -11.94-2.115l.459-1.839c2.589 1.495 7.933 1.954 11.481 1.954s8.892-.459 11.481-1.954zm-11.94 4.116a33.631 33.631 0 0 0 12.432-2.147l4.509 18.035c-1.03.776-6.757 2.112-16.941 2.112s-15.911-1.336-16.941-2.112l4.508-18.034a33.662 33.662 0 0 0 12.433 2.146zm0-10c6.466 0 10.406 1.246 10.969 2-.563.754-4.5 2-10.969 2s-10.406-1.246-10.969-2c.563-.754 4.503-2 10.969-2zm0 32c-17.967 0-29-3.494-29-6 0-1.1 3-3.173 11.12-4.6l-1.09 4.362a.984.984 0 0 0 -.03.238c0 3.808 15.827 4 19 4s19-.192 19-4a.984.984 0 0 0 -.03-.242l-1.09-4.358c8.12 1.427 11.12 3.5 11.12 4.6 0 2.506-11.033 6-29 6z"/><path d="m18 39h2v2h-2z"/><path d="m19 36h2v2h-2z"/><path d="m23 38h2v2h-2z"/></svg>